<?xml version="1.0" encoding="UTF-8" standalone="no"?>
<!-- Created with Inkscape (http://www.inkscape.org/) -->

<svg
   xmlns:dc="http://purl.org/dc/elements/1.1/"
   xmlns:cc="http://creativecommons.org/ns#"
   xmlns:rdf="http://www.w3.org/1999/02/22-rdf-syntax-ns#"
   xmlns:svg="http://www.w3.org/2000/svg"
   xmlns="http://www.w3.org/2000/svg"
   xmlns:sodipodi="http://sodipodi.sourceforge.net/DTD/sodipodi-0.dtd"
   xmlns:inkscape="http://www.inkscape.org/namespaces/inkscape"
   width="210mm"
   height="297mm"
   viewBox="0 0 210 297"
   version="1.1"
   id="svg8"
   inkscape:version="0.92.4 (5da689c313, 2019-01-14)"
   sodipodi:docname="drawing.svg">
  <defs
     id="defs2" />
  <sodipodi:namedview
     id="base"
     pagecolor="#ffffff"
     bordercolor="#666666"
     borderopacity="1.0"
     inkscape:pageopacity="0.0"
     inkscape:pageshadow="2"
     inkscape:zoom="1"
     inkscape:cx="400"
     inkscape:cy="660"
     inkscape:document-units="mm"
     inkscape:current-layer="layer1"
     showgrid="false"
     inkscape:window-width="1920"
     inkscape:window-height="1001"
     inkscape:window-x="-9"
     inkscape:window-y="-9"
     inkscape:window-maximized="1" />
  <metadata
     id="metadata5">
    <rdf:RDF>
      <cc:Work
         rdf:about="">
        <dc:format>image/svg+xml</dc:format>
        <dc:type
           rdf:resource="http://purl.org/dc/dcmitype/StillImage" />
        <dc:title></dc:title>
      </cc:Work>
    </rdf:RDF>
  </metadata>
  <g
     inkscape:label="Layer 1"
     inkscape:groupmode="layer"
     id="layer1">
    <path
       style="fill:none;stroke:#000000;stroke-width:0.26458332px;stroke-linecap:butt;stroke-linejoin:miter;stroke-opacity:1"
       d="m 101.61719,153.49414 c -20.888869,0.0994 -40.70559,8.34076 -58.517581,18.64648 40.41239,0.26377 80.872801,0.96447 121.258581,0.65924 9.4711,-0.0475 -4.59202,-4.8104 -7.58866,-6.07916 -17.6168,-6.95193 -35.9281,-13.57434 -55.15234,-13.22656 z"
       id="path3725"
       inkscape:connector-curvature="0" />
    <path
       style="fill:#241c1c"
       d="m 354,651.36213 c -16.775,-0.1645 -65.825,-0.62384 -109,-1.02077 l -78.5,-0.72167 6,-3.40785 c 12.50983,-7.10526 42.54282,-22.20205 56,-28.14971 40.23481,-17.78257 79.38296,-29.25321 118,-34.57469 17.99149,-2.47925 64.34858,-2.49516 82.88148,-0.0285 43.64659,5.80933 87.26355,18.28755 152.61852,43.66212 41.53151,16.12492 52.1251,21.20649 49.5593,23.77274 -0.70516,0.70528 -216.29933,1.06902 -277.5593,0.46828 z"
       id="path3731"
       inkscape:connector-curvature="0"
       transform="scale(0.26458333)" />
    <path
       style="fill:#241c1c"
       d="m 264,650.06656 c -33.275,-0.36288 -68.375,-0.7298 -78,-0.81538 l -17.5,-0.15559 4.5,-2.61946 c 11.34384,-6.60329 56.99525,-28.72003 70.51642,-34.1631 39.85363,-16.04342 80.44082,-26.46019 114.09794,-29.2834 19.98674,-1.67652 62.12305,-0.63411 78.88564,1.95154 38.53267,5.94373 75.42933,16.37228 129.37109,36.56572 37.30328,13.96471 62.95252,24.86033 64.52928,27.41159 0.30205,0.48873 -1.80197,1.17102 -4.67559,1.51621 -6.55627,0.78755 -280.41923,0.47856 -361.72478,-0.40813 z"
       id="path3733"
       inkscape:connector-curvature="0"
       transform="scale(0.26458333)" />
    <rect
       style="fill:#241c1c;stroke-width:0.33040982"
       id="rect3741"
       width="6.5973921"
       height="115.7858"
       x="100.82344"
       y="37.708332"
       ry="0" />
    <rect
       style="fill:#241c1c;stroke-width:0.26458332"
       id="rect3745"
       width="69.056252"
       height="6.879168"
       x="107.42083"
       y="37.708332" />
    <rect
       style="fill:#241c1c;stroke-width:0.26458332"
       id="rect3747"
       width="4.2333312"
       height="16.404165"
       x="172.24374"
       y="44.587498" />
    <ellipse
       style="fill:#241c1c;stroke-width:0.26458332"
       id="path3749"
       cx="174.625"
       cy="71.839584"
       rx="12.170836"
       ry="11.906253" />
    <rect
       style="fill:#241c1c;stroke-width:0.38036248"
       id="rect3753"
       width="8.2020836"
       height="31.485416"
       x="170.65625"
       y="83.216667" />
    <rect
       y="186.0793"
       x="-67.374619"
       height="22.489578"
       width="3.9687521"
       id="rect3757"
       style="fill:#241c1c;stroke-width:0.26458332"
       transform="matrix(-0.727125,0.68650509,0.68650509,0.727125,0,0)"
       ry="1.9843761" />
    <rect
       transform="matrix(-0.68303076,-0.73038961,-0.73038961,0.68303076,0,0)"
       style="fill:#241c1c;stroke-width:0.26458332"
       id="rect3768"
       width="3.9687521"
       height="22.489578"
       x="-185.7749"
       y="-64.292267"
       ry="1.4761026" />
    <rect
       ry="1.4761026"
       y="5.5139418"
       x="-206.41234"
       height="22.489578"
       width="3.9687521"
       id="rect3770"
       style="fill:#241c1c;stroke-width:0.26458332"
       transform="matrix(-0.86426067,-0.50304422,-0.50304422,0.86426067,0,0)" />
    <rect
       transform="matrix(0.88576305,-0.46413772,-0.46413772,-0.88576305,0,0)"
       style="fill:#241c1c;stroke-width:0.26458332"
       id="rect3772"
       width="3.9687521"
       height="22.489578"
       x="103.72369"
       y="-197.66447"
       ry="1.4761026" />
  </g>
</svg>
